<mxfile host="app.diagrams.net" modified="2021-01-03T14:00:46.031Z" agent="5.0 (Windows NT 10.0; Win64; x64) AppleWebKit/537.36 (KHTML, like Gecko) Chrome/87.0.4280.88 Safari/537.36" etag="Kfbyh3F_6vrRoodvJRAI" version="14.1.1" type="github">
  <diagram id="_VWFgmsc36bpR6t_Q_1w" name="Page-1">
    <mxGraphModel dx="229" dy="123" grid="1" gridSize="10" guides="1" tooltips="1" connect="1" arrows="1" fold="1" page="1" pageScale="1" pageWidth="850" pageHeight="1100" math="0" shadow="0">
      <root>
        <mxCell id="0" />
        <mxCell id="1" parent="0" />
        <mxCell id="EEsalVjFLMn4Mrq5zuK--8" value="" style="ellipse;whiteSpace=wrap;html=1;aspect=fixed;fillColor=#f5f5f5;fontColor=#333333;" parent="1" vertex="1">
          <mxGeometry x="520" y="320" width="10" height="10" as="geometry" />
        </mxCell>
        <mxCell id="EEsalVjFLMn4Mrq5zuK--9" value="" style="ellipse;whiteSpace=wrap;html=1;aspect=fixed;fillColor=#f5f5f5;fontColor=#333333;" parent="1" vertex="1">
          <mxGeometry x="560" y="320" width="10" height="10" as="geometry" />
        </mxCell>
        <mxCell id="EEsalVjFLMn4Mrq5zuK--10" value="" style="endArrow=none;html=1;exitX=1;exitY=0.5;exitDx=0;exitDy=0;" parent="1" source="EEsalVjFLMn4Mrq5zuK--8" edge="1">
          <mxGeometry width="50" height="50" relative="1" as="geometry">
            <mxPoint x="510" y="330" as="sourcePoint" />
            <mxPoint x="560" y="325" as="targetPoint" />
          </mxGeometry>
        </mxCell>
        <mxCell id="EEsalVjFLMn4Mrq5zuK--11" value="" style="ellipse;whiteSpace=wrap;html=1;aspect=fixed;fontColor=#333333;fillColor=#000000;" parent="1" vertex="1">
          <mxGeometry x="490" y="290" width="10" height="10" as="geometry" />
        </mxCell>
        <mxCell id="EEsalVjFLMn4Mrq5zuK--12" value="" style="ellipse;whiteSpace=wrap;html=1;aspect=fixed;fontColor=#333333;fillColor=#000000;" parent="1" vertex="1">
          <mxGeometry x="490" y="350" width="10" height="10" as="geometry" />
        </mxCell>
        <mxCell id="EEsalVjFLMn4Mrq5zuK--13" value="" style="ellipse;whiteSpace=wrap;html=1;aspect=fixed;fontColor=#333333;fillColor=#000000;" parent="1" vertex="1">
          <mxGeometry x="630" y="290" width="10" height="10" as="geometry" />
        </mxCell>
        <mxCell id="EEsalVjFLMn4Mrq5zuK--14" value="" style="ellipse;whiteSpace=wrap;html=1;aspect=fixed;fontColor=#333333;fillColor=#000000;" parent="1" vertex="1">
          <mxGeometry x="630" y="350" width="10" height="10" as="geometry" />
        </mxCell>
        <mxCell id="EEsalVjFLMn4Mrq5zuK--15" value="" style="endArrow=none;html=1;exitX=0;exitY=0;exitDx=0;exitDy=0;entryX=1;entryY=1;entryDx=0;entryDy=0;" parent="1" source="EEsalVjFLMn4Mrq5zuK--8" target="EEsalVjFLMn4Mrq5zuK--11" edge="1">
          <mxGeometry width="50" height="50" relative="1" as="geometry">
            <mxPoint x="415" y="330" as="sourcePoint" />
            <mxPoint x="415" y="298" as="targetPoint" />
          </mxGeometry>
        </mxCell>
        <mxCell id="EEsalVjFLMn4Mrq5zuK--16" value="" style="endArrow=none;html=1;exitX=0;exitY=1;exitDx=0;exitDy=0;entryX=1;entryY=0;entryDx=0;entryDy=0;" parent="1" source="EEsalVjFLMn4Mrq5zuK--8" target="EEsalVjFLMn4Mrq5zuK--12" edge="1">
          <mxGeometry width="50" height="50" relative="1" as="geometry">
            <mxPoint x="531.4644660940672" y="331.4644660940673" as="sourcePoint" />
            <mxPoint x="508.53553390593265" y="308.5355339059327" as="targetPoint" />
          </mxGeometry>
        </mxCell>
        <mxCell id="EEsalVjFLMn4Mrq5zuK--17" value="" style="endArrow=none;html=1;exitX=1;exitY=1;exitDx=0;exitDy=0;entryX=0;entryY=0;entryDx=0;entryDy=0;" parent="1" source="bl_0vHbE4jt8NhRWJMSX-1" target="EEsalVjFLMn4Mrq5zuK--14" edge="1">
          <mxGeometry width="50" height="50" relative="1" as="geometry">
            <mxPoint x="531.4644660940672" y="338.5355339059327" as="sourcePoint" />
            <mxPoint x="508.53553390593265" y="361.46446609406735" as="targetPoint" />
          </mxGeometry>
        </mxCell>
        <mxCell id="EEsalVjFLMn4Mrq5zuK--18" value="" style="endArrow=none;html=1;exitX=0;exitY=1;exitDx=0;exitDy=0;entryX=1;entryY=0;entryDx=0;entryDy=0;" parent="1" source="EEsalVjFLMn4Mrq5zuK--13" target="bl_0vHbE4jt8NhRWJMSX-1" edge="1">
          <mxGeometry width="50" height="50" relative="1" as="geometry">
            <mxPoint x="622.9244660940451" y="289.995533905955" as="sourcePoint" />
            <mxPoint x="599.9955339059433" y="314.92446609405675" as="targetPoint" />
          </mxGeometry>
        </mxCell>
        <mxCell id="bl_0vHbE4jt8NhRWJMSX-1" value="" style="ellipse;whiteSpace=wrap;html=1;aspect=fixed;fillColor=#f5f5f5;fontColor=#333333;" vertex="1" parent="1">
          <mxGeometry x="600" y="320" width="10" height="10" as="geometry" />
        </mxCell>
        <mxCell id="bl_0vHbE4jt8NhRWJMSX-2" value="" style="endArrow=none;html=1;exitX=1;exitY=0.5;exitDx=0;exitDy=0;" edge="1" parent="1">
          <mxGeometry width="50" height="50" relative="1" as="geometry">
            <mxPoint x="569.9999999999978" y="324.93" as="sourcePoint" />
            <mxPoint x="600" y="324.93" as="targetPoint" />
          </mxGeometry>
        </mxCell>
        <mxCell id="bl_0vHbE4jt8NhRWJMSX-3" value="" style="endArrow=none;html=1;exitX=0.5;exitY=0;exitDx=0;exitDy=0;" edge="1" parent="1" source="EEsalVjFLMn4Mrq5zuK--9">
          <mxGeometry width="50" height="50" relative="1" as="geometry">
            <mxPoint x="579.9999999999978" y="334.93" as="sourcePoint" />
            <mxPoint x="565" y="290" as="targetPoint" />
          </mxGeometry>
        </mxCell>
        <mxCell id="bl_0vHbE4jt8NhRWJMSX-4" value="" style="ellipse;whiteSpace=wrap;html=1;aspect=fixed;fontColor=#333333;fillColor=#000000;" vertex="1" parent="1">
          <mxGeometry x="560" y="280" width="10" height="10" as="geometry" />
        </mxCell>
      </root>
    </mxGraphModel>
  </diagram>
</mxfile>
